# xmcd
#
# Track frame offsets: 
#        150
#        12175
#        20672
#        31857
#        42284
#        51664
#        63154
#        73691
#        84236
#        94054
#        104159
#        114946
#        125814
#        136457
#        146262
#        157724
#        166846
#        177581
#        187846
#        198681
#        208671
#        218406
#        230311
#        241524
#        252244
#        262371
#        273351
#
# Disc length: 3774 seconds
#
# Revision: 0
# Processed by: cddbd v1.5.2PL0 Copyright (c) Steve Scherf et al.
# Submitted via: ExactAudioCopy v0.99pb5
#
DISCID=7d0ebc1b
DTITLE=The Ventures  - The Fabulous Ventures and The Ventures A Go-Go  [
DTITLE=APE]
DYEAR=1900
DGENRE=
TTITLE0=Needles And Pins
TTITLE1=Runnin' Wild
TTITLE2=Eleventh Hour
TTITLE3=The Cruel Sea
TTITLE4=Scratchin'
TTITLE5=Tall Cool One
TTITLE6=Only The Young
TTITLE7=Journey To The Stars
TTITLE8=Fugitive
TTITLE9=Ravin' Blue
TTITLE10=Walkin' With Pluto
TTITLE11=The Pink Panther Theme
TTITLE12=(I Can't Get No) Satisfaction
TTITLE13=Go-Go Show
TTITLE14=Louie Louie
TTITLE15=Night Stick
TTITLE16=La Bamba
TTITLE17=The 'In' Crowd
TTITLE18=Wooly Bully
TTITLE19=A Go-Go Guitar
TTITLE20=A Go-Go Dancer
TTITLE21=The Swingin' Creeper
TTITLE22=Whittier Blvd.
TTITLE23=I Like It Like That
TTITLE24=Gemini
TTITLE25=Indian Summer
TTITLE26=Tarantella
EXTD=
EXTT0=
EXTT1=
EXTT2=
EXTT3=
EXTT4=
EXTT5=
EXTT6=
EXTT7=
EXTT8=
EXTT9=
EXTT10=
EXTT11=
EXTT12=
EXTT13=
EXTT14=
EXTT15=
EXTT16=
EXTT17=
EXTT18=
EXTT19=
EXTT20=
EXTT21=
EXTT22=
EXTT23=
EXTT24=
EXTT25=
EXTT26=
PLAYORDER=
